# xmcd
#
# Track frame offsets:
# 150
# 13926
# 26498
# 40945
# 54471
# 68927
# 83515
# 95859
# 110901
# 123014
# 136273
# 150210
# 163311
# 177330
# 190442
# 204661
# 219911
# 237418
#
# Disc length: 3307 seconds
#
#
# Revision: 0
# Processed by: cddbd v1.5.1PL2 Copyright (c) Steve Scherf et al.
# Submitted via: FreeRIP 2.944 
#
DISCID=fb0ce912
DTITLE=Bailão Sertanejo Vol. 2
DYEAR=1900
DGENRE=
TTITLE0=Teodoro and Sampaio - Meu barraco caiu
TTITLE1=Cézar and Paulinho - Zé de baixo Zé de cima
TTITLE2=Gian and Giovani - Abre a janela
TTITLE3=Gilberto and Gilmar - Nóis é jeca mais é jóia
TTITLE4=Gino and Geno - Nóis não vive sem dinheiro
TTITLE5=Chitãozinho and Xororó - Galinhada
TTITLE6=Rionegro and Solimões - Rodopiou
TTITLE7=Tick and Renner - Cachaça
TTITLE8=Robson and Alessandro - Tchau amor
TTITLE9=Emílio and Eduardo - Bate coração
TTITLE10=Henrique and Hernane - Forró do limoa banco
TTITLE11=Mauricio and Mauri - Xonado eu tô
TTITLE12=Roby and Roger - Tô facim
TTITLE13=Havaé and Havaré - Um pedacinho só
TTITLE14=Gian and Giovani - Peão não chora
TTITLE15=Teodoro and Sampaio - O garrafão
TTITLE16=Gilberto and Gilmar - Tá ruim, mas tá om
TTITLE17=Cézar and Paulinho - Barbaridade
EXTD=
EXTT0=
EXTT1=
EXTT2=
EXTT3=
EXTT4=
EXTT5=
EXTT6=
EXTT7=
EXTT8=
EXTT9=
EXTT10=
EXTT11=
EXTT12=
EXTT13=
EXTT14=
EXTT15=
EXTT16=
EXTT17=
PLAYORDER=
